<?xml version="1.0" standalone="no"?>
<!DOCTYPE svg PUBLIC "-//W3C//DTD SVG 20010904//EN"
 "http://www.w3.org/TR/2001/REC-SVG-20010904/DTD/svg10.dtd">
<svg version="1.0" xmlns="http://www.w3.org/2000/svg"
 width="1020.000000pt" height="1020.000000pt" viewBox="0 0 1020.000000 1020.000000"
 preserveAspectRatio="xMidYMid meet">
<metadata>
Created by potrace 1.11, written by Peter Selinger 2001-2013
</metadata>
<g transform="translate(0.000000,1020.000000) scale(0.100000,-0.100000)"
fill="#000000" stroke="none">
<path d="M4926 9924 c7 -17 6 -17 -9 -5 -13 10 -17 10 -17 1 0 -9 -3 -10 -13
-1 -10 8 -17 7 -25 -1 -9 -9 -12 -9 -12 0 0 7 -5 12 -11 12 -5 0 -8 -4 -5 -8
3 -5 -1 -9 -9 -9 -8 0 -12 3 -10 6 2 4 -14 6 -35 6 -21 0 -36 -4 -33 -9 4 -5
-1 -7 -9 -3 -9 3 -21 0 -28 -6 -10 -9 -11 -9 -6 0 3 6 2 14 -4 18 -5 3 -10 1
-10 -6 0 -7 -10 -9 -25 -7 -14 3 -25 1 -25 -5 0 -6 -5 -5 -13 1 -7 6 -19 7
-26 3 -7 -5 -27 -7 -44 -5 -19 3 -38 -3 -50 -13 -11 -10 -17 -12 -13 -5 4 6 2
12 -3 12 -6 0 -11 -3 -11 -8 0 -4 -23 -7 -51 -6 -28 0 -53 -5 -55 -11 -3 -6
-25 -10 -50 -10 -25 1 -48 -3 -50 -7 -3 -5 -13 -3 -22 4 -12 10 -14 10 -8 1 4
-8 1 -13 -9 -13 -10 0 -14 -5 -9 -12 5 -10 4 -10 -6 -1 -13 12 -81 6 -90 -7
-3 -5 -29 -10 -58 -13 -29 -3 -58 -10 -65 -15 -7 -5 -22 -8 -34 -6 -13 2 -23
-1 -23 -8 0 -9 -3 -9 -12 0 -9 9 -15 7 -25 -6 -9 -10 -12 -11 -7 -2 7 13 5 13
-9 1 -9 -7 -24 -11 -32 -7 -8 3 -15 1 -15 -5 0 -6 -4 -8 -9 -5 -5 4 -11 2 -13
-3 -2 -7 -30 -14 -86 -21 -2 0 -1 -4 2 -8 3 -5 -8 -6 -25 -4 -18 3 -29 0 -29
-7 0 -7 -4 -10 -9 -6 -5 3 -12 1 -15 -4 -4 -5 -18 -8 -32 -5 -16 3 -23 1 -19
-6 3 -5 3 -10 -2 -11 -32 -3 -59 -11 -61 -19 -2 -6 -8 -10 -13 -10 -6 0 -7 4
-4 10 3 6 -1 7 -9 4 -9 -3 -16 -9 -16 -13 0 -4 -6 -8 -12 -9 -49 -6 -61 -10
-78 -24 -10 -9 -21 -14 -24 -11 -3 3 -16 -1 -28 -9 -13 -8 -31 -14 -40 -12 -9
1 -19 -4 -22 -12 -3 -8 -19 -14 -35 -14 -16 0 -33 -5 -37 -12 -5 -7 -3 -8 6
-3 8 5 11 4 7 -2 -4 -6 -19 -8 -33 -5 -19 3 -25 1 -20 -7 6 -9 -11 -14 -40
-10 -4 0 -10 -5 -15 -13 -5 -7 -12 -14 -16 -14 -24 -4 -53 -17 -53 -24 0 -4
-8 -7 -17 -6 -10 0 -17 -5 -15 -12 1 -8 -2 -11 -8 -7 -14 9 -90 -26 -83 -38 4
-6 0 -8 -9 -4 -9 3 -24 -1 -35 -8 -10 -8 -26 -15 -36 -15 -10 0 -15 -4 -12
-10 3 -5 -3 -10 -13 -10 -11 0 -25 -7 -32 -15 -7 -8 -17 -12 -22 -9 -6 4 -14
0 -19 -7 -4 -8 -14 -14 -21 -14 -7 -1 -12 -6 -11 -11 1 -6 -5 -11 -13 -12 -7
-1 -21 -3 -29 -4 -8 -1 -17 -8 -19 -15 -3 -8 -10 -11 -16 -8 -5 3 -10 -1 -10
-10 0 -9 -5 -13 -10 -10 -6 3 -17 -1 -26 -9 -9 -9 -19 -14 -24 -11 -4 3 -11
-2 -14 -11 -3 -9 -13 -14 -21 -11 -10 4 -12 1 -8 -10 5 -12 2 -15 -11 -10 -10
4 -19 1 -22 -8 -4 -8 -10 -12 -15 -9 -5 3 -9 0 -9 -5 0 -6 -7 -11 -15 -11 -8
0 -15 -5 -15 -11 0 -6 -7 -8 -16 -5 -8 3 -13 2 -10 -3 3 -4 -6 -13 -19 -19
-14 -7 -25 -16 -25 -22 0 -6 -4 -8 -10 -5 -5 3 -10 1 -10 -4 0 -6 -7 -11 -15
-11 -8 0 -15 -8 -15 -17 0 -13 -3 -14 -8 -6 -6 9 -12 7 -22 -7 -8 -11 -18 -20
-23 -20 -8 0 -23 -11 -58 -42 -10 -10 -22 -18 -25 -18 -3 0 -12 -7 -21 -15 -8
-8 -19 -12 -25 -9 -7 4 -8 2 -4 -4 4 -7 3 -12 -1 -12 -5 0 -24 -14 -43 -32
-19 -18 -38 -31 -42 -30 -5 1 -8 -3 -8 -9 0 -5 -5 -7 -10 -4 -5 3 -10 -1 -10
-9 0 -9 -7 -16 -15 -16 -8 0 -15 -4 -15 -10 0 -5 -7 -10 -16 -10 -8 0 -13 -4
-10 -8 2 -4 -9 -17 -25 -27 -16 -11 -29 -23 -29 -27 0 -5 -7 -8 -15 -8 -8 0
-14 -3 -13 -7 2 -5 -1 -10 -7 -13 -5 -3 -41 -35 -79 -72 -38 -37 -73 -65 -78
-62 -5 3 -8 2 -7 -3 4 -21 -3 -32 -21 -38 -11 -4 -18 -11 -15 -16 4 -5 1 -9
-5 -9 -6 0 -18 -7 -26 -15 -9 -8 -13 -15 -10 -15 3 0 -3 -9 -14 -20 -11 -11
-23 -20 -26 -20 -7 0 -34 -27 -34 -35 0 -3 -25 -30 -55 -61 -31 -30 -53 -59
-50 -65 4 -5 3 -9 -2 -8 -22 4 -32 -2 -27 -16 4 -10 0 -15 -12 -15 -9 0 -15
-3 -12 -6 3 -3 -8 -20 -25 -38 -54 -56 -87 -100 -87 -114 0 -7 -4 -11 -9 -7
-5 3 -12 -3 -16 -14 -3 -11 -12 -22 -20 -25 -8 -3 -15 -12 -15 -21 0 -8 -4
-15 -9 -15 -5 0 -18 -16 -30 -36 -12 -20 -26 -32 -32 -28 -7 4 -7 -1 1 -16 7
-12 8 -20 2 -16 -12 7 -35 -18 -25 -27 3 -4 -1 -7 -11 -7 -9 0 -15 -4 -11 -9
3 -5 -5 -17 -17 -26 -13 -8 -22 -18 -20 -20 6 -13 1 -25 -10 -19 -8 5 -9 2 -5
-9 4 -11 -1 -20 -14 -27 -11 -6 -17 -15 -14 -21 4 -5 1 -9 -5 -9 -6 0 -8 -4
-5 -10 3 -5 -1 -10 -10 -10 -9 0 -14 -4 -10 -9 3 -5 -2 -16 -11 -25 -8 -9 -12
-20 -9 -26 3 -5 0 -10 -7 -10 -12 0 -42 -59 -36 -69 2 -2 -8 -8 -22 -13 -14
-6 -20 -12 -13 -15 9 -3 7 -11 -7 -25 -11 -12 -17 -24 -15 -28 3 -5 -2 -11
-11 -14 -8 -3 -12 -10 -9 -16 3 -6 0 -13 -9 -16 -8 -3 -13 -14 -11 -25 2 -11
0 -17 -5 -14 -5 3 -12 -6 -16 -20 -3 -14 -9 -25 -13 -25 -7 0 -34 -61 -32 -72
0 -5 -4 -8 -10 -8 -5 0 -7 -4 -4 -10 3 -5 3 -10 -2 -10 -9 0 -33 -48 -33 -67
0 -8 -7 -16 -15 -19 -8 -4 -12 -11 -8 -17 3 -5 -2 -16 -12 -24 -14 -9 -15 -13
-4 -13 9 0 10 -3 3 -8 -17 -11 -36 -51 -29 -62 3 -6 -1 -10 -9 -10 -10 0 -13
-6 -10 -15 4 -8 1 -15 -7 -15 -7 0 -9 -3 -6 -6 7 -7 -22 -64 -38 -76 -6 -5 -5
-8 4 -8 11 0 11 -3 1 -15 -7 -8 -9 -15 -4 -15 5 0 5 -4 -1 -8 -18 -13 -48 -81
-42 -96 3 -8 -1 -17 -9 -20 -9 -3 -13 -10 -9 -15 3 -5 1 -13 -5 -16 -8 -5 -7
-11 1 -21 10 -12 9 -13 -6 -8 -11 5 -16 3 -12 -3 3 -5 0 -22 -8 -37 -8 -14 -9
-24 -4 -20 6 4 3 -5 -6 -20 -10 -15 -14 -33 -11 -43 4 -10 4 -14 0 -10 -12 12
-32 -36 -21 -50 6 -9 5 -13 -3 -13 -8 0 -10 -3 -7 -7 4 -3 -1 -12 -10 -18 -14
-11 -15 -16 -5 -28 11 -13 10 -17 -4 -25 -10 -6 -17 -23 -18 -46 0 -20 -5 -36
-9 -36 -5 0 -5 -4 -2 -10 3 -5 2 -10 -4 -10 -5 0 -8 -10 -6 -22 3 -12 -1 -25
-8 -30 -6 -4 -13 -26 -14 -50 -1 -24 -2 -49 -2 -56 -1 -7 -6 -10 -13 -6 -8 5
-9 2 -5 -9 3 -9 2 -19 -3 -22 -5 -3 -7 -16 -4 -29 2 -14 -3 -31 -11 -40 -9 -9
-11 -17 -5 -21 7 -4 7 -12 0 -24 -5 -10 -6 -22 -2 -26 4 -3 -2 -13 -12 -21
-20 -14 -20 -14 0 -14 17 -1 17 -2 4 -13 -9 -7 -15 -24 -15 -39 1 -16 -4 -28
-10 -28 -6 0 -7 -3 0 -8 14 -10 17 -32 4 -32 -5 0 -8 -4 -4 -9 3 -5 -1 -16 -9
-24 -8 -8 -13 -16 -11 -19 9 -9 13 -58 4 -63 -5 -4 -9 -11 -9 -16 0 -6 5 -7
12 -3 7 5 8 3 2 -7 -4 -8 -10 -23 -11 -33 -2 -11 -8 -25 -14 -32 -7 -8 -7 -14
1 -19 8 -5 8 -11 -1 -21 -8 -10 -8 -14 0 -14 7 0 8 -8 1 -25 -7 -18 -6 -25 3
-25 8 0 9 -3 1 -8 -6 -4 -10 -19 -9 -34 1 -16 -2 -28 -7 -28 -4 0 -8 -4 -8
-10 0 -5 8 -6 18 -3 14 6 15 4 4 -9 -11 -14 -18 -84 -12 -113 5 -22 -1 -36
-11 -29 -8 5 -8 1 0 -14 7 -14 8 -23 1 -27 -7 -4 -7 -12 0 -25 7 -13 7 -21 0
-25 -7 -4 -7 -12 0 -25 7 -13 7 -21 -1 -26 -8 -4 -7 -9 2 -15 8 -5 9 -9 3 -9
-6 0 -11 -7 -11 -15 0 -8 5 -15 10 -15 5 0 4 -7 -3 -15 -9 -11 -10 -18 -1 -28
6 -8 7 -17 3 -21 -10 -11 -9 -30 2 -38 6 -4 5 -13 -3 -22 -8 -9 -9 -16 -4 -16
11 0 9 -53 -2 -71 -6 -8 -4 -10 5 -4 10 6 12 4 7 -10 -4 -9 -2 -25 5 -33 11
-13 11 -14 -1 -8 -10 7 -12 4 -7 -12 12 -37 15 -62 8 -62 -4 0 -8 -9 -8 -19 0
-14 4 -17 12 -10 9 8 11 5 7 -10 -3 -12 -10 -18 -15 -15 -6 4 -6 -1 1 -13 7
-15 7 -23 -2 -32 -9 -9 -9 -11 -1 -9 10 2 16 -4 13 -14 -6 -22 -5 -38 2 -38 6
0 7 -6 3 -12 -12 -20 -10 -62 4 -76 13 -15 17 -36 4 -28 -5 3 -9 -1 -9 -9 0
-8 4 -12 9 -9 4 3 8 -10 9 -28 1 -18 2 -48 2 -65 1 -21 6 -33 15 -33 7 0 10
-5 7 -10 -4 -6 -12 -8 -18 -4 -7 3 -4 -1 6 -9 22 -18 23 -27 5 -38 -9 -6 -10
-9 -1 -9 7 0 10 -7 7 -15 -4 -9 0 -15 7 -15 9 0 10 -3 4 -8 -15 -11 -17 -32
-3 -30 8 2 13 -14 14 -46 2 -28 8 -53 16 -57 10 -7 10 -9 -2 -9 -11 0 -12 -2
-3 -8 7 -4 12 -16 12 -27 -1 -11 2 -31 6 -45 4 -14 9 -38 12 -55 3 -16 11 -33
17 -37 7 -5 6 -8 -4 -8 -11 0 -12 -2 -3 -8 7 -4 15 -27 18 -51 3 -24 10 -51
15 -61 5 -9 6 -20 3 -24 -3 -3 -1 -6 6 -6 7 0 10 -4 6 -9 -3 -5 2 -16 10 -25
8 -8 11 -17 6 -20 -5 -3 -7 -15 -4 -26 3 -11 9 -17 14 -14 5 3 6 -2 3 -10 -3
-9 -1 -16 4 -16 6 0 9 -9 7 -20 -2 -11 1 -20 6 -20 6 0 8 -4 4 -9 -3 -5 -1
-12 4 -15 5 -3 7 -15 4 -26 -4 -15 0 -20 13 -20 16 0 17 -2 4 -10 -8 -5 -10
-10 -4 -10 6 0 11 -7 12 -15 1 -8 3 -22 4 -30 1 -8 5 -15 10 -15 4 0 8 -11 8
-25 0 -14 4 -25 8 -25 5 0 9 -6 9 -12 1 -20 7 -43 15 -48 3 -3 8 -14 10 -25 1
-11 7 -23 11 -26 4 -3 9 -16 10 -27 1 -12 5 -22 10 -22 4 0 5 -5 2 -10 -3 -5
-2 -10 4 -10 5 0 8 -9 6 -20 -2 -11 0 -18 6 -15 5 4 9 -1 9 -9 0 -9 5 -16 11
-16 8 0 7 -6 -2 -17 -7 -10 -9 -15 -5 -11 12 10 39 -29 31 -42 -3 -6 -1 -10 5
-10 6 0 8 -5 5 -10 -3 -6 -1 -10 5 -10 7 0 10 -7 6 -15 -3 -8 2 -18 10 -23 8
-5 16 -18 17 -30 1 -12 5 -22 9 -22 4 0 8 -9 8 -19 0 -11 5 -23 12 -27 7 -5 8
-3 3 6 -5 9 -4 11 4 6 6 -4 9 -11 6 -16 -3 -4 2 -20 10 -36 7 -15 11 -32 8
-37 -3 -6 -1 -7 5 -3 6 3 16 -3 22 -15 10 -17 9 -20 -2 -14 -7 5 -2 -4 11 -18
14 -15 20 -27 15 -27 -5 0 -3 -4 3 -8 7 -4 14 -19 16 -32 2 -13 9 -26 15 -28
7 -2 12 -10 12 -18 0 -9 5 -12 10 -9 6 3 10 -3 10 -14 0 -11 7 -26 15 -34 8
-8 11 -17 8 -21 -4 -3 -1 -6 5 -6 7 0 12 -7 12 -15 0 -8 4 -15 9 -15 5 0 12
-8 15 -17 13 -35 37 -73 47 -73 6 0 7 -4 4 -10 -3 -5 -1 -10 5 -10 6 0 8 -4 5
-10 -3 -5 -1 -10 4 -10 6 0 11 -7 11 -15 0 -8 5 -15 10 -15 6 0 10 -7 10 -16
0 -9 5 -12 12 -8 7 5 9 2 5 -9 -3 -9 0 -18 9 -21 8 -3 14 -13 14 -21 0 -9 5
-13 10 -10 5 3 10 -3 10 -13 0 -11 10 -27 22 -36 13 -9 16 -14 8 -11 -8 4 -6
-1 5 -10 11 -9 19 -21 17 -26 -1 -5 3 -9 8 -9 6 0 16 -11 22 -25 6 -14 18 -25
27 -26 10 0 11 -2 4 -6 -10 -3 -10 -7 0 -18 7 -7 15 -11 20 -8 4 2 7 -4 7 -14
0 -10 14 -29 30 -42 17 -13 30 -30 30 -38 0 -8 14 -26 30 -40 17 -13 28 -29
24 -34 -3 -5 0 -9 6 -9 6 0 18 -7 26 -15 9 -8 13 -15 9 -15 -3 0 8 -14 25 -30
17 -17 28 -30 25 -30 -3 0 22 -28 55 -62 33 -35 60 -67 60 -71 0 -5 5 -5 10
-2 6 3 10 3 10 -2 0 -14 47 -63 54 -56 3 3 6 1 6 -5 0 -9 116 -132 125 -132
10 0 79 -76 77 -85 -2 -5 -1 -7 3 -3 4 4 12 2 19 -3 6 -5 26 -23 45 -39 19
-17 38 -30 43 -30 4 0 8 -7 8 -15 0 -9 6 -12 17 -8 13 5 15 2 10 -11 -4 -9 -3
-15 2 -12 5 3 14 -1 21 -9 7 -8 16 -12 21 -9 5 3 8 1 7 -4 -2 -6 1 -10 6 -10
5 0 13 -7 18 -16 5 -9 14 -13 20 -10 7 4 8 2 4 -4 -4 -7 3 -17 18 -24 14 -6
26 -15 26 -20 0 -4 6 -8 13 -8 7 0 19 -9 27 -19 7 -11 17 -18 21 -16 4 3 9 -2
13 -10 3 -8 12 -15 21 -15 8 0 15 -4 15 -10 0 -5 7 -10 15 -10 8 0 15 -4 15
-10 0 -5 15 -17 33 -26 17 -9 36 -23 40 -30 4 -8 17 -14 28 -14 11 0 17 -4 14
-10 -3 -5 1 -10 10 -10 10 0 13 -5 9 -12 -4 -6 -3 -8 3 -5 6 4 23 -3 39 -15
15 -13 24 -16 20 -8 -5 8 1 6 12 -5 37 -35 52 -46 52 -38 0 4 4 2 9 -5 4 -7
17 -15 27 -16 10 -2 18 -9 16 -15 -1 -6 2 -12 8 -12 30 -4 64 -21 73 -36 5 -7
12 -11 18 -8 5 4 16 0 24 -7 34 -31 45 -38 58 -38 7 0 19 -6 26 -12 6 -7 15
-14 19 -14 27 -5 52 -18 52 -26 0 -5 5 -6 10 -3 6 3 10 2 10 -3 0 -6 7 -13 16
-16 10 -4 13 -2 9 7 -4 6 0 4 8 -5 8 -10 17 -15 20 -11 4 3 7 1 7 -6 0 -7 6
-11 14 -8 8 3 17 -1 20 -9 3 -9 10 -13 15 -10 5 4 15 1 23 -6 7 -7 20 -14 28
-16 8 -2 18 -8 21 -14 3 -5 9 -9 13 -9 25 4 36 0 30 -11 -4 -6 -3 -8 3 -5 5 3
22 -1 37 -9 16 -7 35 -14 42 -14 8 0 14 -5 14 -11 0 -5 4 -8 9 -4 5 3 12 1 16
-5 4 -6 11 -8 16 -5 5 4 16 -1 25 -10 9 -9 24 -13 35 -10 14 5 19 1 19 -11 0
-10 3 -14 7 -11 3 4 13 1 21 -6 13 -10 14 -9 7 3 -6 11 -3 10 11 -2 11 -10 34
-18 52 -20 21 -1 32 -8 32 -18 0 -13 1 -13 10 0 6 10 10 11 10 2 0 -6 3 -11 8
-11 19 3 43 -2 39 -8 -3 -5 5 -9 16 -9 33 -3 51 -8 58 -17 3 -4 17 -9 30 -9
13 -1 29 -5 34 -9 6 -4 21 -9 35 -11 14 -1 30 -8 37 -14 6 -6 23 -10 37 -9 14
2 26 0 26 -4 0 -6 17 -10 58 -13 6 -1 12 -5 12 -10 0 -5 5 -6 10 -3 6 4 17 1
25 -5 8 -6 19 -9 25 -5 5 3 10 1 10 -6 0 -8 4 -8 15 1 11 9 15 9 15 1 0 -7 5
-9 10 -6 6 3 10 1 10 -5 0 -6 4 -9 9 -5 5 3 12 1 16 -5 4 -6 12 -7 23 -1 10 6
23 4 39 -6 13 -9 32 -13 43 -10 11 3 18 1 15 -3 -3 -5 8 -7 25 -5 23 3 30 0
31 -13 0 -10 3 -12 5 -5 4 9 14 8 43 -2 25 -8 43 -10 54 -3 11 6 17 5 17 -1 0
-6 7 -7 17 -4 12 5 14 3 8 -8 -7 -12 -6 -12 7 -1 9 7 19 9 22 4 3 -5 31 -10
63 -11 32 -1 61 -7 65 -14 6 -9 8 -8 8 3 0 12 2 13 9 1 7 -11 9 -11 14 0 4 10
6 10 6 2 1 -9 23 -13 74 -13 40 0 78 -5 84 -11 8 -8 13 -7 18 2 6 8 4 10 -5 4
-9 -6 -11 -4 -5 4 5 9 11 9 17 3 6 -6 17 -8 24 -5 8 3 14 -1 14 -8 0 -11 3
-11 10 1 6 10 10 11 10 3 0 -7 5 -13 11 -13 5 0 8 3 6 8 -3 4 6 8 19 8 13 1
24 -2 24 -8 0 -5 -5 -6 -12 -2 -7 4 -8 3 -4 -5 4 -6 12 -8 19 -4 15 9 57 11
57 2 0 -10 34 -5 42 6 5 6 8 5 8 -2 0 -9 7 -10 25 -3 14 5 25 6 25 2 0 -4 56
-7 125 -7 69 0 125 2 125 5 0 3 24 4 52 3 29 -1 60 1 68 4 28 11 55 11 69 -1
11 -8 13 -8 8 1 -6 9 18 11 92 10 80 -2 97 1 93 12 -4 11 -1 11 18 1 12 -7 20
-8 17 -3 -4 6 13 11 36 12 61 3 112 8 112 11 0 4 35 9 86 13 25 2 51 7 57 11
5 3 13 0 15 -6 4 -8 6 -7 6 3 1 12 10 17 29 16 58 -1 83 3 77 12 -3 6 4 8 15
6 11 -2 20 1 20 6 0 6 6 7 13 2 18 -11 38 -13 31 -2 -3 5 3 10 13 11 10 0 23
2 30 2 6 1 15 4 18 8 4 4 13 4 21 1 8 -3 14 0 14 7 0 9 4 9 17 -1 9 -8 14 -9
10 -3 -8 13 25 24 54 19 11 -2 17 0 14 6 -4 5 -3 9 2 10 4 0 23 2 42 4 19 2
37 8 40 14 3 5 22 11 41 13 24 2 34 8 32 17 -3 12 0 12 12 1 12 -9 16 -10 16
0 0 7 7 10 15 6 8 -3 20 0 27 7 7 7 26 12 41 11 15 -1 30 3 34 9 4 6 1 7 -7 2
-8 -5 -11 -4 -6 3 3 6 15 9 26 7 11 -2 20 -1 20 3 0 4 10 9 22 9 13 1 24 7 26
12 2 5 9 8 16 5 8 -3 20 2 28 10 11 11 18 12 27 3 8 -8 11 -8 11 2 0 7 4 10 9
7 5 -3 11 1 15 9 3 8 12 12 21 9 8 -3 15 -1 15 6 0 6 5 8 10 5 6 -3 10 -1 10
5 0 7 6 10 14 7 7 -3 24 1 35 10 12 8 25 13 28 9 3 -3 12 2 21 10 8 9 23 13
33 11 10 -3 17 0 16 7 -1 6 4 10 11 8 6 -1 12 2 12 7 0 6 9 8 20 6 11 -2 19 1
17 8 -1 7 6 11 16 9 9 -2 20 4 23 12 3 9 11 13 17 9 5 -3 15 0 21 8 6 8 16 14
21 15 23 3 55 17 55 25 0 5 9 9 19 9 11 0 26 7 34 15 8 8 17 11 21 8 3 -4 6
-2 6 4 0 6 11 14 25 17 14 4 25 11 25 16 0 5 7 7 15 4 8 -4 15 -1 15 5 0 6 7
11 16 11 9 0 12 5 8 12 -4 7 -3 10 1 6 5 -5 28 3 52 17 23 14 43 23 43 20 0
-3 9 3 19 13 36 32 51 43 51 36 0 -3 6 -1 13 5 8 6 17 8 20 4 4 -3 7 1 7 10 0
10 6 17 14 17 8 0 22 7 30 16 9 8 16 13 16 9 0 -4 7 0 15 7 33 29 45 38 45 33
0 -4 7 0 15 7 32 29 45 38 52 38 5 0 20 11 35 24 14 14 28 22 32 19 3 -3 8 2
12 11 3 9 12 16 20 16 7 0 18 8 23 17 6 10 11 14 11 9 0 -5 9 1 20 14 11 13
20 20 20 16 0 -4 12 6 26 21 15 15 23 21 18 13 -5 -9 1 -4 13 10 13 14 23 21
23 17 0 -4 11 3 24 17 13 15 29 26 35 26 7 0 9 5 6 10 -3 6 1 10 9 10 8 0 24
12 35 26 12 15 21 24 21 20 0 -4 6 -1 14 6 8 7 11 17 9 22 -3 5 0 7 8 4 7 -2
30 13 51 34 20 21 42 38 48 38 5 0 10 4 10 9 0 13 58 70 65 63 3 -3 5 2 5 12
0 9 3 15 8 13 9 -5 82 70 75 77 -4 3 1 6 10 6 10 0 17 7 17 16 0 8 5 12 10 9
6 -3 10 1 10 10 0 9 5 13 10 10 6 -3 10 1 10 9 0 9 6 16 13 16 8 0 20 11 27
25 7 14 20 25 28 25 9 0 13 3 9 6 -3 4 14 26 39 50 25 25 42 49 39 54 -3 6 1
10 10 10 9 0 13 5 10 10 -3 6 1 10 9 10 9 0 16 4 16 9 0 4 15 25 34 45 19 20
32 36 28 36 -4 0 2 7 12 15 11 8 16 15 12 15 -5 0 6 15 25 33 19 18 35 39 37
47 2 8 11 22 20 31 41 39 63 72 58 85 -3 7 -2 13 2 11 4 -1 19 9 32 22 14 13
18 21 10 17 -8 -4 -5 1 8 10 12 9 22 23 22 31 0 7 6 16 14 19 8 3 17 13 20 21
6 14 4 14 -11 3 -10 -8 -3 0 15 18 17 17 32 37 32 45 0 8 7 18 16 21 8 3 13
10 10 14 -3 5 3 18 13 29 10 11 22 29 25 41 4 12 12 22 17 22 5 0 9 7 9 15 0
7 8 19 18 24 10 6 12 11 4 11 -8 0 -6 8 8 22 11 12 20 28 20 35 0 7 5 13 11
13 6 0 8 7 5 16 -3 8 -2 13 2 10 7 -4 28 32 34 59 3 16 22 33 30 28 4 -2 5 3
2 11 -3 9 2 23 11 32 9 9 14 23 11 30 -3 8 1 14 9 14 8 0 15 9 15 20 0 11 5
20 11 20 5 0 7 4 4 10 -3 5 -1 10 4 10 6 0 10 3 9 8 -3 14 14 62 23 62 5 0 9
9 9 20 0 11 5 20 11 20 5 0 7 5 4 10 -3 6 -1 10 5 10 6 0 9 4 5 9 -3 5 0 15 7
23 7 7 14 24 16 37 1 14 10 33 19 43 9 10 12 18 8 18 -4 0 -1 8 8 18 10 10 14
21 11 24 -3 4 2 17 11 31 8 14 14 31 13 38 -2 8 2 13 7 12 9 -1 15 18 18 64 0
7 4 10 9 7 7 -5 12 16 9 42 -1 7 5 14 13 17 8 3 12 16 11 31 -2 14 0 26 3 26
4 0 12 11 19 25 8 19 8 23 0 18 -8 -4 -8 -2 0 9 7 8 10 18 6 21 -3 4 -1 7 6 7
8 0 11 7 7 15 -3 8 0 15 6 15 7 0 6 5 -2 15 -10 12 -10 15 2 15 8 0 15 6 16
13 1 6 3 23 4 37 2 14 7 28 13 32 5 4 10 21 10 38 0 17 5 34 11 38 5 4 10 22
11 41 0 18 5 36 10 40 5 3 9 23 9 43 -1 20 2 34 6 32 5 -3 8 4 8 15 0 12 6 21
13 21 8 0 7 4 -3 10 -8 5 -10 10 -4 10 7 0 9 11 6 25 -3 16 0 25 8 25 9 0 9 4
-1 17 -10 11 -10 14 -1 9 7 -4 12 -2 13 6 1 7 2 24 3 38 0 14 5 31 10 39 6 10
5 12 -2 7 -8 -5 -10 -2 -6 8 3 9 9 16 14 16 4 0 6 23 6 51 -1 28 2 53 8 56 5
4 6 1 1 -7 -5 -9 -4 -11 4 -6 9 6 9 11 0 22 -7 8 -7 14 -1 14 5 0 10 24 11 53
1 28 2 60 2 70 0 9 4 15 8 13 4 -3 7 8 6 25 -1 16 2 32 7 35 5 3 4 12 -2 19
-8 9 -8 15 0 20 7 4 7 12 0 24 -5 10 -6 21 -3 25 4 3 8 23 9 44 1 20 3 42 4
47 5 21 0 36 -10 30 -5 -3 -10 -4 -10 0 0 3 10 10 23 15 19 8 20 9 3 9 -20 1
-20 1 0 17 10 8 14 13 8 10 -7 -3 -14 5 -16 18 -4 18 -1 23 10 19 11 -5 12 -2
5 13 -10 21 -10 55 1 73 4 6 3 11 -3 11 -10 0 -9 25 1 36 4 3 3 17 -2 30 -5
13 -6 24 -2 24 9 0 8 47 -1 56 -3 4 -1 16 5 27 8 16 8 22 0 25 -9 3 -9 9 -2
23 6 10 7 19 3 19 -10 0 -8 94 3 111 4 7 3 10 -4 5 -7 -4 -10 1 -9 14 1 11 6
20 12 21 5 0 1 4 -10 9 -11 5 -14 9 -7 9 6 1 12 6 12 12 0 5 -4 8 -8 5 -5 -3
-9 1 -9 9 0 8 4 12 9 9 5 -3 6 7 3 23 -4 15 -7 42 -8 58 -1 17 -6 35 -10 42
-4 6 -3 14 3 18 6 4 7 13 1 23 -6 11 -6 24 0 35 7 11 6 17 -1 17 -8 0 -8 6 0
20 6 11 7 20 1 20 -5 0 -12 7 -15 16 -4 10 -2 13 7 8 8 -6 8 -3 -1 9 -8 9 -11
21 -7 27 3 5 1 10 -5 10 -7 0 -8 6 -1 18 6 10 6 24 1 32 -5 8 -6 18 -3 22 2 5
-1 16 -9 25 -11 14 -11 16 2 9 8 -4 6 0 -4 8 -13 10 -15 16 -7 16 11 0 11 3 1
15 -10 12 -10 15 1 15 9 0 10 3 3 8 -5 4 -10 21 -9 39 0 17 -3 29 -9 26 -5 -4
-7 3 -4 15 4 12 3 20 -1 18 -4 -3 -8 16 -9 42 -1 26 -6 48 -12 50 -5 2 -10 8
-10 13 0 6 6 7 13 3 6 -4 4 1 -5 12 -14 16 -15 23 -6 32 9 9 9 12 -1 12 -11 0
-11 3 -1 15 11 13 10 14 -4 9 -13 -5 -16 1 -16 35 0 23 0 44 1 48 0 3 -7 10
-16 15 -12 7 -13 13 -5 23 8 9 8 15 0 20 -6 3 -8 11 -5 16 4 5 2 9 -3 9 -9 0
-11 8 -14 55 -1 14 -6 25 -10 25 -4 0 -8 7 -8 16 0 8 -5 12 -11 8 -8 -5 -8 -1
0 13 7 15 7 25 -3 39 -18 27 -28 56 -16 49 6 -4 5 5 -2 19 -6 14 -15 26 -19
26 -4 0 -6 8 -4 18 1 9 -4 24 -12 33 -7 9 -13 20 -12 25 1 5 1 23 0 39 -1 24
-3 27 -12 15 -8 -12 -10 -8 -7 17 3 18 2 30 -2 28 -3 -2 -12 5 -19 17 -7 11
-8 17 -2 14 7 -4 8 -1 5 8 -3 9 -10 16 -15 16 -5 0 -9 8 -9 18 0 11 -7 33 -16
50 -8 18 -13 36 -10 41 4 5 2 11 -3 13 -5 1 -11 10 -13 18 -2 8 -9 21 -16 28
-7 8 -10 17 -7 22 3 5 1 11 -5 15 -6 4 -8 10 -5 15 3 4 -2 10 -10 14 -8 3 -12
11 -9 19 3 8 -2 20 -11 27 -8 7 -15 23 -15 37 0 14 -4 21 -10 18 -5 -3 -10 3
-10 14 0 12 -4 21 -8 21 -4 0 -8 10 -9 22 -1 12 -9 25 -17 30 -8 5 -13 15 -10
23 4 8 -1 18 -10 21 -9 3 -14 10 -11 14 3 5 -2 16 -11 25 -9 9 -14 19 -10 22
3 4 -4 18 -16 31 -13 14 -16 22 -8 17 8 -4 5 2 -8 14 -12 12 -20 26 -18 30 3
4 -3 13 -14 21 -10 7 -16 18 -14 24 3 7 -5 21 -16 33 -11 12 -20 27 -20 33 0
6 -7 18 -15 27 -8 8 -13 19 -10 24 4 5 -1 9 -10 9 -11 0 -15 5 -12 14 3 8 -1
17 -10 20 -9 4 -13 9 -10 12 3 4 -3 15 -14 27 -10 11 -19 27 -19 34 0 7 -4 13
-10 13 -5 0 -10 7 -10 15 0 8 -4 15 -10 15 -5 0 -10 7 -10 15 0 8 -4 15 -10
15 -5 0 -10 5 -10 11 0 6 -7 17 -15 26 -8 8 -13 19 -10 24 4 5 -2 6 -11 2 -12
-4 -15 -3 -10 5 4 6 -2 19 -14 29 -11 10 -20 23 -20 30 0 7 -5 13 -12 13 -6 0
-9 3 -5 6 3 3 -3 15 -13 27 -10 12 -28 33 -39 46 -11 13 -18 28 -14 34 3 6 1
7 -5 3 -7 -4 -12 -1 -12 8 0 9 -7 16 -16 16 -8 0 -12 5 -9 10 3 6 -1 13 -9 16
-9 3 -14 10 -11 14 3 4 -2 11 -11 14 -8 3 -12 10 -9 16 3 5 -1 10 -9 10 -9 0
-16 4 -16 9 0 5 -18 28 -40 51 -22 23 -38 46 -34 51 3 5 -2 9 -10 9 -8 0 -18
9 -21 20 -3 11 -14 20 -22 20 -9 0 -14 3 -10 6 3 3 -14 26 -39 50 -24 25 -44
49 -44 55 0 6 -7 8 -16 5 -8 -3 -12 -2 -9 4 3 6 -1 13 -9 16 -9 3 -13 10 -10
15 3 5 2 9 -3 9 -17 0 -73 62 -67 73 4 7 4 9 -1 5 -9 -9 -47 10 -42 20 2 4 -4
15 -15 25 -10 9 -18 15 -18 12 0 -3 -21 16 -47 42 -26 27 -50 47 -54 46 -4 -2
-10 6 -14 16 -3 10 -19 24 -35 31 -16 7 -27 16 -24 21 3 5 -1 9 -8 9 -8 0 -20
9 -28 20 -8 11 -20 20 -28 20 -7 0 -11 4 -8 9 3 5 -8 14 -24 21 -17 7 -30 19
-30 27 0 8 -4 12 -9 9 -5 -3 -12 1 -15 10 -4 9 -9 14 -12 11 -4 -3 -20 7 -36
24 -16 16 -34 27 -39 23 -5 -3 -9 2 -9 11 0 9 -4 13 -10 10 -5 -3 -10 1 -10
10 0 9 -4 13 -10 10 -5 -3 -21 5 -34 18 -14 14 -27 22 -30 20 -3 -3 -8 2 -12
11 -3 9 -13 16 -21 16 -8 0 -11 5 -7 12 4 7 3 8 -4 4 -7 -4 -22 2 -34 13 -12
12 -28 21 -35 21 -7 0 -13 5 -13 10 0 11 -49 35 -63 31 -5 -1 -5 3 -2 9 4 7
-2 14 -14 17 -12 3 -21 9 -21 14 0 5 -9 9 -20 9 -11 0 -20 4 -20 8 0 5 -12 15
-27 23 -16 8 -34 20 -41 27 -8 7 -18 10 -23 7 -5 -4 -9 -2 -9 3 0 4 -20 19
-45 31 -25 12 -45 26 -45 31 0 4 -8 7 -17 6 -10 0 -17 4 -16 11 2 7 -6 10 -17
8 -11 -2 -20 0 -20 5 0 4 -18 17 -40 28 -22 10 -37 14 -34 8 3 -6 -1 -4 -8 6
-8 9 -23 18 -33 20 -11 1 -28 12 -38 23 -10 11 -15 13 -11 5 5 -10 -1 -8 -16
5 -13 11 -20 14 -15 6 5 -9 -1 -7 -19 4 -14 10 -26 22 -26 28 0 8 -4 7 -11 0
-9 -9 -17 -6 -31 10 -11 12 -17 16 -13 10 9 -18 -1 -16 -21 4 -9 10 -29 19
-43 21 -14 2 -34 10 -43 19 -15 13 -18 13 -18 2 -1 -10 -4 -9 -14 4 -7 9 -21
17 -30 17 -9 0 -16 5 -16 11 0 5 -4 8 -8 5 -4 -2 -21 1 -37 9 -33 14 -56 22
-68 23 -4 0 -20 8 -34 17 -14 9 -22 12 -18 6 3 -6 -10 -2 -29 9 -20 11 -36 18
-36 15 0 -2 -12 2 -27 10 -21 11 -30 12 -42 2 -10 -8 -13 -8 -8 -1 6 11 -15
21 -68 31 -10 2 -22 8 -26 14 -3 6 -20 11 -38 11 -17 1 -34 5 -37 10 -3 4 -15
8 -28 8 -12 0 -28 6 -35 13 -11 10 -12 9 -6 -2 7 -11 4 -11 -14 1 -12 9 -31
14 -42 11 -11 -3 -19 0 -19 7 0 7 -8 10 -20 7 -11 -3 -20 -1 -20 5 0 6 -6 8
-14 5 -7 -3 -19 0 -25 6 -8 8 -11 8 -11 -2 0 -9 -4 -9 -14 2 -8 8 -27 14 -43
13 -15 -1 -34 6 -41 14 -12 13 -13 13 -6 0 5 -12 4 -12 -6 -3 -7 6 -19 9 -26
6 -8 -3 -14 0 -14 6 0 7 -11 9 -25 7 -14 -3 -45 1 -68 7 -23 7 -61 12 -84 12
-23 0 -41 4 -40 10 1 5 -26 9 -61 10 -34 0 -62 3 -62 7 0 4 -9 5 -20 3 -11 -2
-20 0 -20 4 0 4 -41 9 -91 9 -50 1 -95 4 -100 7 -5 4 -9 1 -9 -5 0 -6 -5 -8
-12 -3 -7 4 -21 6 -30 5 -10 -2 -18 2 -18 8 0 6 -5 8 -11 4 -22 -13 -69 -14
-69 -1 0 8 -4 7 -10 -3 -9 -13 -11 -13 -20 0 -6 10 -10 11 -10 3 0 -18 -16
-16 -36 5 -17 16 -18 16 -11 -2 6 -14 4 -17 -9 -12 -8 3 -18 6 -20 6 -3 0 -2
6 2 13 4 6 -3 3 -16 -8 -13 -11 -20 -14 -16 -7 4 6 2 12 -3 12 -6 0 -11 -5
-11 -12 0 -6 -9 -3 -20 7 -20 18 -21 18 -14 -1 7 -17 6 -18 -10 -5 -15 13 -19
13 -27 0 -7 -12 -9 -12 -9 1 0 13 -1 13 -10 0 -7 -11 -10 -11 -10 -2 0 8 -5
10 -12 5 -19 -11 -39 -13 -32 -2 6 11 -25 7 -45 -5 -11 -7 -13 -5 -8 7 4 11 2
14 -8 10 -8 -3 -12 -10 -8 -17 3 -6 -4 -2 -16 8 -22 20 -22 20 -15 0z"/>
</g>
</svg>
